<?xml version="1.0" encoding="UTF-8"?>
<svg width="128" height="128" viewBox="0 0 128 128" xmlns="http://www.w3.org/2000/svg">
  <!-- LiveBoard Icon — Google-style kanban favicon -->

  <!-- Background -->
  <rect width="128" height="128" rx="28" fill="white"/>

  <!-- Column 1 — Blue -->
  <rect x="16" y="16" width="28" height="96" rx="6" fill="#4285F4" opacity="0.15"/>
  <rect x="19" y="22" width="22" height="18" rx="4" fill="#4285F4"/>
  <rect x="19" y="44" width="22" height="26" rx="4" fill="#4285F4"/>
  <rect x="19" y="74" width="22" height="14" rx="4" fill="#4285F4"/>

  <!-- Column 2 — Red -->
  <rect x="50" y="16" width="28" height="96" rx="6" fill="#EA4335" opacity="0.15"/>
  <rect x="53" y="22" width="22" height="14" rx="4" fill="#EA4335"/>
  <rect x="53" y="40" width="22" height="22" rx="4" fill="#EA4335"/>

  <!-- Column 3 — Green -->
  <rect x="84" y="16" width="28" height="96" rx="6" fill="#34A853" opacity="0.15"/>
  <rect x="87" y="22" width="22" height="22" rx="4" fill="#34A853"/>
  <rect x="87" y="48" width="22" height="14" rx="4" fill="#34A853"/>
  <rect x="87" y="66" width="22" height="18" rx="4" fill="#34A853"/>
</svg>
